<svg id="visual" viewBox="0 0 900 600" width="900" height="600" xmlns="http://www.w3.org/2000/svg" xmlns:xlink="http://www.w3.org/1999/xlink" version="1.1"><path d="M0 97L13.7 102C27.3 107 54.7 117 82 114C109.3 111 136.7 95 163.8 82C191 69 218 59 245.2 52C272.3 45 299.7 41 327 41C354.3 41 381.7 45 409 56C436.3 67 463.7 85 491 96C518.3 107 545.7 111 573 103C600.3 95 627.7 75 654.8 64C682 53 709 51 736.2 51C763.3 51 790.7 53 818 63C845.3 73 872.7 91 886.3 100L900 109L900 0L886.3 0C872.7 0 845.3 0 818 0C790.7 0 763.3 0 736.2 0C709 0 682 0 654.8 0C627.7 0 600.3 0 573 0C545.7 0 518.3 0 491 0C463.7 0 436.3 0 409 0C381.7 0 354.3 0 327 0C299.7 0 272.3 0 245.2 0C218 0 191 0 163.8 0C136.7 0 109.3 0 82 0C54.7 0 27.3 0 13.7 0L0 0Z" fill="#6198ff"></path><path d="M0 253L13.7 265C27.3 277 54.7 301 82 318C109.3 335 136.7 345 163.8 321C191 297 218 239 245.2 208C272.3 177 299.7 173 327 189C354.3 205 381.7 241 409 256C436.3 271 463.7 265 491 269C518.3 273 545.7 287 573 277C600.3 267 627.7 233 654.8 220C682 207 709 215 736.2 220C763.3 225 790.7 227 818 236C845.3 245 872.7 261 886.3 269L900 277L900 107L886.3 98C872.7 89 845.3 71 818 61C790.7 51 763.3 49 736.2 49C709 49 682 51 654.8 62C627.7 73 600.3 93 573 101C545.7 109 518.3 105 491 94C463.7 83 436.3 65 409 54C381.7 43 354.3 39 327 39C299.7 39 272.3 43 245.2 50C218 57 191 67 163.8 80C136.7 93 109.3 109 82 112C54.7 115 27.3 105 13.7 100L0 95Z" fill="#3c80ff"></path><path d="M0 433L13.7 429C27.3 425 54.7 417 82 424C109.3 431 136.7 453 163.8 460C191 467 218 459 245.2 439C272.3 419 299.7 387 327 376C354.3 365 381.7 375 409 388C436.3 401 463.7 417 491 425C518.3 433 545.7 433 573 435C600.3 437 627.7 441 654.8 442C682 443 709 441 736.2 447C763.3 453 790.7 467 818 455C845.3 443 872.7 405 886.3 386L900 367L900 275L886.3 267C872.7 259 845.3 243 818 234C790.7 225 763.3 223 736.2 218C709 213 682 205 654.8 218C627.7 231 600.3 265 573 275C545.7 285 518.3 271 491 267C463.7 263 436.3 269 409 254C381.7 239 354.3 203 327 187C299.7 171 272.3 175 245.2 206C218 237 191 295 163.8 319C136.7 343 109.3 333 82 316C54.7 299 27.3 275 13.7 263L0 251Z" fill="#0066ff"></path><path d="M0 541L13.7 543C27.3 545 54.7 549 82 551C109.3 553 136.7 553 163.8 553C191 553 218 553 245.2 544C272.3 535 299.7 517 327 511C354.3 505 381.7 511 409 514C436.3 517 463.7 517 491 516C518.3 515 545.7 513 573 520C600.3 527 627.7 543 654.8 546C682 549 709 539 736.2 537C763.3 535 790.7 541 818 537C845.3 533 872.7 519 886.3 512L900 505L900 365L886.3 384C872.7 403 845.3 441 818 453C790.7 465 763.3 451 736.2 445C709 439 682 441 654.8 440C627.7 439 600.3 435 573 433C545.7 431 518.3 431 491 423C463.7 415 436.3 399 409 386C381.7 373 354.3 363 327 374C299.7 385 272.3 417 245.2 437C218 457 191 465 163.8 458C136.7 451 109.3 429 82 422C54.7 415 27.3 423 13.7 427L0 431Z" fill="#0059dd"></path><path d="M0 601L13.7 601C27.3 601 54.7 601 82 601C109.3 601 136.7 601 163.8 601C191 601 218 601 245.2 601C272.3 601 299.7 601 327 601C354.3 601 381.7 601 409 601C436.3 601 463.7 601 491 601C518.3 601 545.7 601 573 601C600.3 601 627.7 601 654.8 601C682 601 709 601 736.2 601C763.3 601 790.7 601 818 601C845.3 601 872.7 601 886.3 601L900 601L900 503L886.3 510C872.7 517 845.3 531 818 535C790.7 539 763.3 533 736.2 535C709 537 682 547 654.8 544C627.7 541 600.3 525 573 518C545.7 511 518.3 513 491 514C463.7 515 436.3 515 409 512C381.7 509 354.3 503 327 509C299.7 515 272.3 533 245.2 542C218 551 191 551 163.8 551C136.7 551 109.3 551 82 549C54.7 547 27.3 543 13.7 541L0 539Z" fill="#004cbb"></path></svg>